<svg width="50" height="50" viewBox="0 0 50 50" fill="none" xmlns="http://www.w3.org/2000/svg">
<path d="M41.7254 21.65V37.3625H34.2254V29.1H25.9754V21.6H41.7254V21.65ZM25.7754 35.1C23.0967 35.1 20.5277 34.0359 18.6336 32.1418C16.7395 30.2477 15.6754 27.6787 15.6754 25C15.6754 22.3213 16.7395 19.7523 18.6336 17.8582C20.5277 15.9641 23.0967 14.9 25.7754 14.9V7.5C21.1341 7.5 16.6829 9.34374 13.401 12.6256C10.1191 15.9075 8.27539 20.3587 8.27539 25C8.27539 29.6413 10.1191 34.0925 13.401 37.3744C16.6829 40.6563 21.1341 42.5 25.7754 42.5V35.1Z" fill="white"/>
</svg>
